<mxfile host="app.diagrams.net" agent="Mozilla/5.0 (Windows NT 10.0; Win64; x64) AppleWebKit/537.36 (KHTML, like Gecko) Chrome/131.0.0.0 Safari/537.36" version="24.8.9">
  <diagram name="Page-1" id="RzsKgnqGwc3_8M-HvfZ9">
    <mxGraphModel dx="1096" dy="1412" grid="1" gridSize="10" guides="1" tooltips="1" connect="1" arrows="1" fold="1" page="1" pageScale="1" pageWidth="850" pageHeight="1100" math="0" shadow="0">
      <root>
        <mxCell id="0" />
        <mxCell id="1" parent="0" />
        <mxCell id="F_85ezbhZMd-6I1-vzlb-35" value="" style="group" vertex="1" connectable="0" parent="1">
          <mxGeometry x="530" y="150" width="60" height="80" as="geometry" />
        </mxCell>
        <mxCell id="F_85ezbhZMd-6I1-vzlb-10" value="" style="group" vertex="1" connectable="0" parent="F_85ezbhZMd-6I1-vzlb-35">
          <mxGeometry x="20" width="20" height="50" as="geometry" />
        </mxCell>
        <mxCell id="F_85ezbhZMd-6I1-vzlb-11" value="" style="ellipse;whiteSpace=wrap;html=1;aspect=fixed;" vertex="1" parent="F_85ezbhZMd-6I1-vzlb-10">
          <mxGeometry width="20" height="20" as="geometry" />
        </mxCell>
        <mxCell id="F_85ezbhZMd-6I1-vzlb-12" value="" style="endArrow=none;html=1;rounded=0;" edge="1" parent="F_85ezbhZMd-6I1-vzlb-10">
          <mxGeometry width="50" height="50" relative="1" as="geometry">
            <mxPoint x="10.029999999999973" y="40" as="sourcePoint" />
            <mxPoint x="9.92999999999995" y="20" as="targetPoint" />
          </mxGeometry>
        </mxCell>
        <mxCell id="F_85ezbhZMd-6I1-vzlb-13" value="" style="endArrow=none;html=1;rounded=0;" edge="1" parent="F_85ezbhZMd-6I1-vzlb-10">
          <mxGeometry width="50" height="50" relative="1" as="geometry">
            <mxPoint x="20" y="30" as="sourcePoint" />
            <mxPoint x="20" y="30" as="targetPoint" />
            <Array as="points">
              <mxPoint x="10" y="20" />
            </Array>
          </mxGeometry>
        </mxCell>
        <mxCell id="F_85ezbhZMd-6I1-vzlb-14" value="" style="endArrow=none;html=1;rounded=0;" edge="1" parent="F_85ezbhZMd-6I1-vzlb-10">
          <mxGeometry width="50" height="50" relative="1" as="geometry">
            <mxPoint x="20" y="50" as="sourcePoint" />
            <mxPoint x="20" y="50" as="targetPoint" />
            <Array as="points">
              <mxPoint x="10" y="40" />
            </Array>
          </mxGeometry>
        </mxCell>
        <mxCell id="F_85ezbhZMd-6I1-vzlb-15" value="" style="endArrow=none;html=1;rounded=0;" edge="1" parent="F_85ezbhZMd-6I1-vzlb-10">
          <mxGeometry width="50" height="50" relative="1" as="geometry">
            <mxPoint y="50" as="sourcePoint" />
            <mxPoint x="10" y="40" as="targetPoint" />
            <Array as="points">
              <mxPoint y="50" />
            </Array>
          </mxGeometry>
        </mxCell>
        <mxCell id="F_85ezbhZMd-6I1-vzlb-16" value="" style="endArrow=none;html=1;rounded=0;" edge="1" parent="F_85ezbhZMd-6I1-vzlb-10">
          <mxGeometry width="50" height="50" relative="1" as="geometry">
            <mxPoint y="30" as="sourcePoint" />
            <mxPoint x="10" y="20" as="targetPoint" />
            <Array as="points">
              <mxPoint y="30" />
            </Array>
          </mxGeometry>
        </mxCell>
        <mxCell id="F_85ezbhZMd-6I1-vzlb-34" value="Doctor" style="text;html=1;align=center;verticalAlign=middle;whiteSpace=wrap;rounded=0;" vertex="1" parent="F_85ezbhZMd-6I1-vzlb-35">
          <mxGeometry y="50" width="60" height="30" as="geometry" />
        </mxCell>
        <mxCell id="F_85ezbhZMd-6I1-vzlb-36" value="" style="group" vertex="1" connectable="0" parent="1">
          <mxGeometry x="530" y="350" width="60" height="90" as="geometry" />
        </mxCell>
        <mxCell id="F_85ezbhZMd-6I1-vzlb-24" value="" style="group" vertex="1" connectable="0" parent="F_85ezbhZMd-6I1-vzlb-36">
          <mxGeometry x="20" width="20" height="50" as="geometry" />
        </mxCell>
        <mxCell id="F_85ezbhZMd-6I1-vzlb-25" value="" style="ellipse;whiteSpace=wrap;html=1;aspect=fixed;" vertex="1" parent="F_85ezbhZMd-6I1-vzlb-24">
          <mxGeometry width="20" height="20" as="geometry" />
        </mxCell>
        <mxCell id="F_85ezbhZMd-6I1-vzlb-26" value="" style="endArrow=none;html=1;rounded=0;" edge="1" parent="F_85ezbhZMd-6I1-vzlb-24">
          <mxGeometry width="50" height="50" relative="1" as="geometry">
            <mxPoint x="10.029999999999973" y="40" as="sourcePoint" />
            <mxPoint x="9.92999999999995" y="20" as="targetPoint" />
          </mxGeometry>
        </mxCell>
        <mxCell id="F_85ezbhZMd-6I1-vzlb-27" value="" style="endArrow=none;html=1;rounded=0;" edge="1" parent="F_85ezbhZMd-6I1-vzlb-24">
          <mxGeometry width="50" height="50" relative="1" as="geometry">
            <mxPoint x="20" y="30" as="sourcePoint" />
            <mxPoint x="20" y="30" as="targetPoint" />
            <Array as="points">
              <mxPoint x="10" y="20" />
            </Array>
          </mxGeometry>
        </mxCell>
        <mxCell id="F_85ezbhZMd-6I1-vzlb-28" value="" style="endArrow=none;html=1;rounded=0;" edge="1" parent="F_85ezbhZMd-6I1-vzlb-24">
          <mxGeometry width="50" height="50" relative="1" as="geometry">
            <mxPoint x="20" y="50" as="sourcePoint" />
            <mxPoint x="20" y="50" as="targetPoint" />
            <Array as="points">
              <mxPoint x="10" y="40" />
            </Array>
          </mxGeometry>
        </mxCell>
        <mxCell id="F_85ezbhZMd-6I1-vzlb-29" value="" style="endArrow=none;html=1;rounded=0;" edge="1" parent="F_85ezbhZMd-6I1-vzlb-24">
          <mxGeometry width="50" height="50" relative="1" as="geometry">
            <mxPoint y="50" as="sourcePoint" />
            <mxPoint x="10" y="40" as="targetPoint" />
            <Array as="points">
              <mxPoint y="50" />
            </Array>
          </mxGeometry>
        </mxCell>
        <mxCell id="F_85ezbhZMd-6I1-vzlb-30" value="" style="endArrow=none;html=1;rounded=0;" edge="1" parent="F_85ezbhZMd-6I1-vzlb-24">
          <mxGeometry width="50" height="50" relative="1" as="geometry">
            <mxPoint y="30" as="sourcePoint" />
            <mxPoint x="10" y="20" as="targetPoint" />
            <Array as="points">
              <mxPoint y="30" />
            </Array>
          </mxGeometry>
        </mxCell>
        <mxCell id="F_85ezbhZMd-6I1-vzlb-33" value="Medicine Vendor" style="text;html=1;align=center;verticalAlign=middle;whiteSpace=wrap;rounded=0;" vertex="1" parent="F_85ezbhZMd-6I1-vzlb-36">
          <mxGeometry y="60" width="60" height="30" as="geometry" />
        </mxCell>
        <mxCell id="F_85ezbhZMd-6I1-vzlb-37" value="" style="group" vertex="1" connectable="0" parent="1">
          <mxGeometry x="54" y="350" width="60" height="90" as="geometry" />
        </mxCell>
        <mxCell id="F_85ezbhZMd-6I1-vzlb-17" value="" style="group" vertex="1" connectable="0" parent="F_85ezbhZMd-6I1-vzlb-37">
          <mxGeometry x="16" width="20" height="50" as="geometry" />
        </mxCell>
        <mxCell id="F_85ezbhZMd-6I1-vzlb-18" value="" style="ellipse;whiteSpace=wrap;html=1;aspect=fixed;" vertex="1" parent="F_85ezbhZMd-6I1-vzlb-17">
          <mxGeometry width="20" height="20" as="geometry" />
        </mxCell>
        <mxCell id="F_85ezbhZMd-6I1-vzlb-19" value="" style="endArrow=none;html=1;rounded=0;" edge="1" parent="F_85ezbhZMd-6I1-vzlb-17">
          <mxGeometry width="50" height="50" relative="1" as="geometry">
            <mxPoint x="10.029999999999973" y="40" as="sourcePoint" />
            <mxPoint x="9.92999999999995" y="20" as="targetPoint" />
          </mxGeometry>
        </mxCell>
        <mxCell id="F_85ezbhZMd-6I1-vzlb-20" value="" style="endArrow=none;html=1;rounded=0;" edge="1" parent="F_85ezbhZMd-6I1-vzlb-17">
          <mxGeometry width="50" height="50" relative="1" as="geometry">
            <mxPoint x="20" y="30" as="sourcePoint" />
            <mxPoint x="20" y="30" as="targetPoint" />
            <Array as="points">
              <mxPoint x="10" y="20" />
            </Array>
          </mxGeometry>
        </mxCell>
        <mxCell id="F_85ezbhZMd-6I1-vzlb-21" value="" style="endArrow=none;html=1;rounded=0;" edge="1" parent="F_85ezbhZMd-6I1-vzlb-17">
          <mxGeometry width="50" height="50" relative="1" as="geometry">
            <mxPoint x="20" y="50" as="sourcePoint" />
            <mxPoint x="20" y="50" as="targetPoint" />
            <Array as="points">
              <mxPoint x="10" y="40" />
            </Array>
          </mxGeometry>
        </mxCell>
        <mxCell id="F_85ezbhZMd-6I1-vzlb-22" value="" style="endArrow=none;html=1;rounded=0;" edge="1" parent="F_85ezbhZMd-6I1-vzlb-17">
          <mxGeometry width="50" height="50" relative="1" as="geometry">
            <mxPoint y="50" as="sourcePoint" />
            <mxPoint x="10" y="40" as="targetPoint" />
            <Array as="points">
              <mxPoint y="50" />
            </Array>
          </mxGeometry>
        </mxCell>
        <mxCell id="F_85ezbhZMd-6I1-vzlb-23" value="" style="endArrow=none;html=1;rounded=0;" edge="1" parent="F_85ezbhZMd-6I1-vzlb-17">
          <mxGeometry width="50" height="50" relative="1" as="geometry">
            <mxPoint y="30" as="sourcePoint" />
            <mxPoint x="10" y="20" as="targetPoint" />
            <Array as="points">
              <mxPoint y="30" />
            </Array>
          </mxGeometry>
        </mxCell>
        <mxCell id="F_85ezbhZMd-6I1-vzlb-32" value="AI system" style="text;html=1;align=center;verticalAlign=middle;whiteSpace=wrap;rounded=0;" vertex="1" parent="F_85ezbhZMd-6I1-vzlb-37">
          <mxGeometry y="60" width="60" height="30" as="geometry" />
        </mxCell>
        <mxCell id="F_85ezbhZMd-6I1-vzlb-38" value="" style="group" vertex="1" connectable="0" parent="1">
          <mxGeometry x="49" y="150" width="60" height="80" as="geometry" />
        </mxCell>
        <mxCell id="F_85ezbhZMd-6I1-vzlb-9" value="" style="group" vertex="1" connectable="0" parent="F_85ezbhZMd-6I1-vzlb-38">
          <mxGeometry x="20" width="20" height="50" as="geometry" />
        </mxCell>
        <mxCell id="F_85ezbhZMd-6I1-vzlb-2" value="" style="ellipse;whiteSpace=wrap;html=1;aspect=fixed;" vertex="1" parent="F_85ezbhZMd-6I1-vzlb-9">
          <mxGeometry width="20" height="20" as="geometry" />
        </mxCell>
        <mxCell id="F_85ezbhZMd-6I1-vzlb-3" value="" style="endArrow=none;html=1;rounded=0;" edge="1" parent="F_85ezbhZMd-6I1-vzlb-9">
          <mxGeometry width="50" height="50" relative="1" as="geometry">
            <mxPoint x="10.029999999999973" y="40" as="sourcePoint" />
            <mxPoint x="9.92999999999995" y="20" as="targetPoint" />
          </mxGeometry>
        </mxCell>
        <mxCell id="F_85ezbhZMd-6I1-vzlb-5" value="" style="endArrow=none;html=1;rounded=0;" edge="1" parent="F_85ezbhZMd-6I1-vzlb-9">
          <mxGeometry width="50" height="50" relative="1" as="geometry">
            <mxPoint x="20" y="30" as="sourcePoint" />
            <mxPoint x="20" y="30" as="targetPoint" />
            <Array as="points">
              <mxPoint x="10" y="20" />
            </Array>
          </mxGeometry>
        </mxCell>
        <mxCell id="F_85ezbhZMd-6I1-vzlb-6" value="" style="endArrow=none;html=1;rounded=0;" edge="1" parent="F_85ezbhZMd-6I1-vzlb-9">
          <mxGeometry width="50" height="50" relative="1" as="geometry">
            <mxPoint x="20" y="50" as="sourcePoint" />
            <mxPoint x="20" y="50" as="targetPoint" />
            <Array as="points">
              <mxPoint x="10" y="40" />
            </Array>
          </mxGeometry>
        </mxCell>
        <mxCell id="F_85ezbhZMd-6I1-vzlb-7" value="" style="endArrow=none;html=1;rounded=0;" edge="1" parent="F_85ezbhZMd-6I1-vzlb-9">
          <mxGeometry width="50" height="50" relative="1" as="geometry">
            <mxPoint y="50" as="sourcePoint" />
            <mxPoint x="10" y="40" as="targetPoint" />
            <Array as="points">
              <mxPoint y="50" />
            </Array>
          </mxGeometry>
        </mxCell>
        <mxCell id="F_85ezbhZMd-6I1-vzlb-8" value="" style="endArrow=none;html=1;rounded=0;" edge="1" parent="F_85ezbhZMd-6I1-vzlb-9">
          <mxGeometry width="50" height="50" relative="1" as="geometry">
            <mxPoint y="30" as="sourcePoint" />
            <mxPoint x="10" y="20" as="targetPoint" />
            <Array as="points">
              <mxPoint y="30" />
            </Array>
          </mxGeometry>
        </mxCell>
        <mxCell id="F_85ezbhZMd-6I1-vzlb-31" value="Patient" style="text;html=1;align=center;verticalAlign=middle;whiteSpace=wrap;rounded=0;" vertex="1" parent="F_85ezbhZMd-6I1-vzlb-38">
          <mxGeometry y="50" width="60" height="30" as="geometry" />
        </mxCell>
        <mxCell id="F_85ezbhZMd-6I1-vzlb-64" value="" style="group" vertex="1" connectable="0" parent="1">
          <mxGeometry x="50" y="580" width="60" height="90" as="geometry" />
        </mxCell>
        <mxCell id="F_85ezbhZMd-6I1-vzlb-65" value="" style="group" vertex="1" connectable="0" parent="F_85ezbhZMd-6I1-vzlb-64">
          <mxGeometry x="16" width="20" height="50" as="geometry" />
        </mxCell>
        <mxCell id="F_85ezbhZMd-6I1-vzlb-66" value="" style="ellipse;whiteSpace=wrap;html=1;aspect=fixed;" vertex="1" parent="F_85ezbhZMd-6I1-vzlb-65">
          <mxGeometry width="20" height="20" as="geometry" />
        </mxCell>
        <mxCell id="F_85ezbhZMd-6I1-vzlb-67" value="" style="endArrow=none;html=1;rounded=0;" edge="1" parent="F_85ezbhZMd-6I1-vzlb-65">
          <mxGeometry width="50" height="50" relative="1" as="geometry">
            <mxPoint x="10.029999999999973" y="40" as="sourcePoint" />
            <mxPoint x="9.92999999999995" y="20" as="targetPoint" />
          </mxGeometry>
        </mxCell>
        <mxCell id="F_85ezbhZMd-6I1-vzlb-68" value="" style="endArrow=none;html=1;rounded=0;" edge="1" parent="F_85ezbhZMd-6I1-vzlb-65">
          <mxGeometry width="50" height="50" relative="1" as="geometry">
            <mxPoint x="20" y="30" as="sourcePoint" />
            <mxPoint x="20" y="30" as="targetPoint" />
            <Array as="points">
              <mxPoint x="10" y="20" />
            </Array>
          </mxGeometry>
        </mxCell>
        <mxCell id="F_85ezbhZMd-6I1-vzlb-69" value="" style="endArrow=none;html=1;rounded=0;" edge="1" parent="F_85ezbhZMd-6I1-vzlb-65">
          <mxGeometry width="50" height="50" relative="1" as="geometry">
            <mxPoint x="20" y="50" as="sourcePoint" />
            <mxPoint x="20" y="50" as="targetPoint" />
            <Array as="points">
              <mxPoint x="10" y="40" />
            </Array>
          </mxGeometry>
        </mxCell>
        <mxCell id="F_85ezbhZMd-6I1-vzlb-70" value="" style="endArrow=none;html=1;rounded=0;" edge="1" parent="F_85ezbhZMd-6I1-vzlb-65">
          <mxGeometry width="50" height="50" relative="1" as="geometry">
            <mxPoint y="50" as="sourcePoint" />
            <mxPoint x="10" y="40" as="targetPoint" />
            <Array as="points">
              <mxPoint y="50" />
            </Array>
          </mxGeometry>
        </mxCell>
        <mxCell id="F_85ezbhZMd-6I1-vzlb-71" value="" style="endArrow=none;html=1;rounded=0;" edge="1" parent="F_85ezbhZMd-6I1-vzlb-65">
          <mxGeometry width="50" height="50" relative="1" as="geometry">
            <mxPoint y="30" as="sourcePoint" />
            <mxPoint x="10" y="20" as="targetPoint" />
            <Array as="points">
              <mxPoint y="30" />
            </Array>
          </mxGeometry>
        </mxCell>
        <mxCell id="F_85ezbhZMd-6I1-vzlb-72" value="Evaluator" style="text;html=1;align=center;verticalAlign=middle;whiteSpace=wrap;rounded=0;" vertex="1" parent="F_85ezbhZMd-6I1-vzlb-64">
          <mxGeometry y="60" width="60" height="30" as="geometry" />
        </mxCell>
        <mxCell id="F_85ezbhZMd-6I1-vzlb-73" value="" style="group" vertex="1" connectable="0" parent="1">
          <mxGeometry x="530" y="575" width="60" height="90" as="geometry" />
        </mxCell>
        <mxCell id="F_85ezbhZMd-6I1-vzlb-74" value="" style="group" vertex="1" connectable="0" parent="F_85ezbhZMd-6I1-vzlb-73">
          <mxGeometry x="16" width="20" height="50" as="geometry" />
        </mxCell>
        <mxCell id="F_85ezbhZMd-6I1-vzlb-75" value="" style="ellipse;whiteSpace=wrap;html=1;aspect=fixed;" vertex="1" parent="F_85ezbhZMd-6I1-vzlb-74">
          <mxGeometry width="20" height="20" as="geometry" />
        </mxCell>
        <mxCell id="F_85ezbhZMd-6I1-vzlb-76" value="" style="endArrow=none;html=1;rounded=0;" edge="1" parent="F_85ezbhZMd-6I1-vzlb-74">
          <mxGeometry width="50" height="50" relative="1" as="geometry">
            <mxPoint x="10.029999999999973" y="40" as="sourcePoint" />
            <mxPoint x="9.92999999999995" y="20" as="targetPoint" />
          </mxGeometry>
        </mxCell>
        <mxCell id="F_85ezbhZMd-6I1-vzlb-77" value="" style="endArrow=none;html=1;rounded=0;" edge="1" parent="F_85ezbhZMd-6I1-vzlb-74">
          <mxGeometry width="50" height="50" relative="1" as="geometry">
            <mxPoint x="20" y="30" as="sourcePoint" />
            <mxPoint x="20" y="30" as="targetPoint" />
            <Array as="points">
              <mxPoint x="10" y="20" />
            </Array>
          </mxGeometry>
        </mxCell>
        <mxCell id="F_85ezbhZMd-6I1-vzlb-78" value="" style="endArrow=none;html=1;rounded=0;" edge="1" parent="F_85ezbhZMd-6I1-vzlb-74">
          <mxGeometry width="50" height="50" relative="1" as="geometry">
            <mxPoint x="20" y="50" as="sourcePoint" />
            <mxPoint x="20" y="50" as="targetPoint" />
            <Array as="points">
              <mxPoint x="10" y="40" />
            </Array>
          </mxGeometry>
        </mxCell>
        <mxCell id="F_85ezbhZMd-6I1-vzlb-79" value="" style="endArrow=none;html=1;rounded=0;" edge="1" parent="F_85ezbhZMd-6I1-vzlb-74">
          <mxGeometry width="50" height="50" relative="1" as="geometry">
            <mxPoint y="50" as="sourcePoint" />
            <mxPoint x="10" y="40" as="targetPoint" />
            <Array as="points">
              <mxPoint y="50" />
            </Array>
          </mxGeometry>
        </mxCell>
        <mxCell id="F_85ezbhZMd-6I1-vzlb-80" value="" style="endArrow=none;html=1;rounded=0;" edge="1" parent="F_85ezbhZMd-6I1-vzlb-74">
          <mxGeometry width="50" height="50" relative="1" as="geometry">
            <mxPoint y="30" as="sourcePoint" />
            <mxPoint x="10" y="20" as="targetPoint" />
            <Array as="points">
              <mxPoint y="30" />
            </Array>
          </mxGeometry>
        </mxCell>
        <mxCell id="F_85ezbhZMd-6I1-vzlb-81" value="Support Staff" style="text;html=1;align=center;verticalAlign=middle;whiteSpace=wrap;rounded=0;" vertex="1" parent="F_85ezbhZMd-6I1-vzlb-73">
          <mxGeometry y="60" width="60" height="30" as="geometry" />
        </mxCell>
        <mxCell id="F_85ezbhZMd-6I1-vzlb-82" value="Log In" style="ellipse;whiteSpace=wrap;html=1;" vertex="1" parent="1">
          <mxGeometry x="245.5" y="20" width="120" height="30" as="geometry" />
        </mxCell>
        <mxCell id="F_85ezbhZMd-6I1-vzlb-83" value="Select Doctor" style="ellipse;whiteSpace=wrap;html=1;" vertex="1" parent="1">
          <mxGeometry x="245.5" y="60" width="120" height="30" as="geometry" />
        </mxCell>
        <mxCell id="F_85ezbhZMd-6I1-vzlb-84" value="Get Doctor Approval" style="ellipse;whiteSpace=wrap;html=1;" vertex="1" parent="1">
          <mxGeometry x="244.5" y="100" width="120" height="30" as="geometry" />
        </mxCell>
        <mxCell id="F_85ezbhZMd-6I1-vzlb-85" value="Fill health Form" style="ellipse;whiteSpace=wrap;html=1;" vertex="1" parent="1">
          <mxGeometry x="250" y="210" width="120" height="30" as="geometry" />
        </mxCell>
        <mxCell id="F_85ezbhZMd-6I1-vzlb-86" value="Explain Symptom&lt;br&gt;audio/video/text" style="ellipse;whiteSpace=wrap;html=1;" vertex="1" parent="1">
          <mxGeometry x="244.5" y="250" width="131" height="50" as="geometry" />
        </mxCell>
        <mxCell id="F_85ezbhZMd-6I1-vzlb-87" value="Submit data" style="ellipse;whiteSpace=wrap;html=1;" vertex="1" parent="1">
          <mxGeometry x="249" y="310" width="120" height="30" as="geometry" />
        </mxCell>
        <mxCell id="F_85ezbhZMd-6I1-vzlb-88" value="AI Analyse&lt;br&gt;assign CBR tag" style="ellipse;whiteSpace=wrap;html=1;" vertex="1" parent="1">
          <mxGeometry x="243.5" y="350" width="131" height="40" as="geometry" />
        </mxCell>
        <mxCell id="F_85ezbhZMd-6I1-vzlb-89" value="Review AI&lt;br&gt;Insights" style="ellipse;whiteSpace=wrap;html=1;" vertex="1" parent="1">
          <mxGeometry x="250" y="400" width="120" height="30" as="geometry" />
        </mxCell>
        <mxCell id="F_85ezbhZMd-6I1-vzlb-90" value="Provide Dr. Insights" style="ellipse;whiteSpace=wrap;html=1;" vertex="1" parent="1">
          <mxGeometry x="250" y="440" width="120" height="30" as="geometry" />
        </mxCell>
        <mxCell id="F_85ezbhZMd-6I1-vzlb-91" value="Video consultation" style="ellipse;whiteSpace=wrap;html=1;" vertex="1" parent="1">
          <mxGeometry x="250" y="480" width="120" height="30" as="geometry" />
        </mxCell>
        <mxCell id="F_85ezbhZMd-6I1-vzlb-92" value="Rise Ticket" style="ellipse;whiteSpace=wrap;html=1;" vertex="1" parent="1">
          <mxGeometry x="249" y="520" width="120" height="30" as="geometry" />
        </mxCell>
        <mxCell id="F_85ezbhZMd-6I1-vzlb-93" value="&lt;font style=&quot;font-size: 10px;&quot;&gt;Evaluate Prescription&lt;/font&gt;" style="ellipse;whiteSpace=wrap;html=1;" vertex="1" parent="1">
          <mxGeometry x="250" y="610" width="120" height="30" as="geometry" />
        </mxCell>
        <mxCell id="F_85ezbhZMd-6I1-vzlb-95" value="&lt;font style=&quot;font-size: 10px;&quot;&gt;Send Prescription&lt;br&gt;to patient&lt;/font&gt;" style="ellipse;whiteSpace=wrap;html=1;" vertex="1" parent="1">
          <mxGeometry x="251" y="650" width="120" height="30" as="geometry" />
        </mxCell>
        <mxCell id="F_85ezbhZMd-6I1-vzlb-96" value="Order medicine online" style="ellipse;whiteSpace=wrap;html=1;" vertex="1" parent="1">
          <mxGeometry x="251" y="690" width="130" height="40" as="geometry" />
        </mxCell>
        <mxCell id="F_85ezbhZMd-6I1-vzlb-97" value="Follow up calls" style="ellipse;whiteSpace=wrap;html=1;" vertex="1" parent="1">
          <mxGeometry x="250" y="740" width="120" height="30" as="geometry" />
        </mxCell>
        <mxCell id="F_85ezbhZMd-6I1-vzlb-98" value="" style="endArrow=classic;html=1;rounded=0;entryX=0;entryY=0.5;entryDx=0;entryDy=0;" edge="1" parent="1" target="F_85ezbhZMd-6I1-vzlb-82">
          <mxGeometry width="50" height="50" relative="1" as="geometry">
            <mxPoint x="100" y="180" as="sourcePoint" />
            <mxPoint x="170" y="140" as="targetPoint" />
          </mxGeometry>
        </mxCell>
        <mxCell id="F_85ezbhZMd-6I1-vzlb-99" value="" style="endArrow=classic;html=1;rounded=0;entryX=0;entryY=0.5;entryDx=0;entryDy=0;" edge="1" parent="1" target="F_85ezbhZMd-6I1-vzlb-83">
          <mxGeometry width="50" height="50" relative="1" as="geometry">
            <mxPoint x="100" y="180" as="sourcePoint" />
            <mxPoint x="260" y="115" as="targetPoint" />
          </mxGeometry>
        </mxCell>
        <mxCell id="F_85ezbhZMd-6I1-vzlb-100" value="" style="endArrow=classic;html=1;rounded=0;entryX=0;entryY=0.5;entryDx=0;entryDy=0;" edge="1" parent="1" target="F_85ezbhZMd-6I1-vzlb-84">
          <mxGeometry width="50" height="50" relative="1" as="geometry">
            <mxPoint x="100" y="180" as="sourcePoint" />
            <mxPoint x="260" y="155" as="targetPoint" />
          </mxGeometry>
        </mxCell>
        <mxCell id="F_85ezbhZMd-6I1-vzlb-101" value="" style="endArrow=classic;html=1;rounded=0;entryX=0;entryY=0.5;entryDx=0;entryDy=0;" edge="1" parent="1" target="F_85ezbhZMd-6I1-vzlb-85">
          <mxGeometry width="50" height="50" relative="1" as="geometry">
            <mxPoint x="100" y="180" as="sourcePoint" />
            <mxPoint x="259" y="195" as="targetPoint" />
          </mxGeometry>
        </mxCell>
        <mxCell id="F_85ezbhZMd-6I1-vzlb-102" value="" style="endArrow=classic;html=1;rounded=0;entryX=0.014;entryY=0.567;entryDx=0;entryDy=0;entryPerimeter=0;" edge="1" parent="1" target="F_85ezbhZMd-6I1-vzlb-86">
          <mxGeometry width="50" height="50" relative="1" as="geometry">
            <mxPoint x="100" y="180" as="sourcePoint" />
            <mxPoint x="260" y="235" as="targetPoint" />
          </mxGeometry>
        </mxCell>
        <mxCell id="F_85ezbhZMd-6I1-vzlb-103" value="" style="endArrow=classic;html=1;rounded=0;entryX=0;entryY=0.5;entryDx=0;entryDy=0;" edge="1" parent="1" target="F_85ezbhZMd-6I1-vzlb-87">
          <mxGeometry width="50" height="50" relative="1" as="geometry">
            <mxPoint x="100" y="180" as="sourcePoint" />
            <mxPoint x="256" y="288" as="targetPoint" />
          </mxGeometry>
        </mxCell>
        <mxCell id="F_85ezbhZMd-6I1-vzlb-104" value="" style="endArrow=classic;html=1;rounded=0;entryX=0;entryY=0.5;entryDx=0;entryDy=0;" edge="1" parent="1" target="F_85ezbhZMd-6I1-vzlb-92">
          <mxGeometry width="50" height="50" relative="1" as="geometry">
            <mxPoint x="100" y="180" as="sourcePoint" />
            <mxPoint x="259" y="335" as="targetPoint" />
          </mxGeometry>
        </mxCell>
        <mxCell id="F_85ezbhZMd-6I1-vzlb-107" value="" style="endArrow=classic;html=1;rounded=0;entryX=0;entryY=0.5;entryDx=0;entryDy=0;" edge="1" parent="1" target="F_85ezbhZMd-6I1-vzlb-96">
          <mxGeometry width="50" height="50" relative="1" as="geometry">
            <mxPoint x="100" y="180" as="sourcePoint" />
            <mxPoint x="259" y="545" as="targetPoint" />
          </mxGeometry>
        </mxCell>
        <mxCell id="F_85ezbhZMd-6I1-vzlb-108" value="" style="endArrow=classic;html=1;rounded=0;entryX=-0.016;entryY=0.656;entryDx=0;entryDy=0;entryPerimeter=0;" edge="1" parent="1" target="F_85ezbhZMd-6I1-vzlb-97">
          <mxGeometry width="50" height="50" relative="1" as="geometry">
            <mxPoint x="100" y="180" as="sourcePoint" />
            <mxPoint x="260" y="670" as="targetPoint" />
          </mxGeometry>
        </mxCell>
        <mxCell id="F_85ezbhZMd-6I1-vzlb-109" value="" style="endArrow=classic;html=1;rounded=0;entryX=1;entryY=0.5;entryDx=0;entryDy=0;" edge="1" parent="1" target="F_85ezbhZMd-6I1-vzlb-110">
          <mxGeometry width="50" height="50" relative="1" as="geometry">
            <mxPoint x="550" y="180" as="sourcePoint" />
            <mxPoint x="400" y="150" as="targetPoint" />
          </mxGeometry>
        </mxCell>
        <mxCell id="F_85ezbhZMd-6I1-vzlb-110" value="Approve Patient" style="ellipse;whiteSpace=wrap;html=1;" vertex="1" parent="1">
          <mxGeometry x="243.5" y="150" width="120" height="30" as="geometry" />
        </mxCell>
        <mxCell id="F_85ezbhZMd-6I1-vzlb-111" value="" style="endArrow=classic;html=1;rounded=0;entryX=1;entryY=0.5;entryDx=0;entryDy=0;" edge="1" parent="1" target="F_85ezbhZMd-6I1-vzlb-89">
          <mxGeometry width="50" height="50" relative="1" as="geometry">
            <mxPoint x="550" y="180" as="sourcePoint" />
            <mxPoint x="373" y="175" as="targetPoint" />
          </mxGeometry>
        </mxCell>
        <mxCell id="F_85ezbhZMd-6I1-vzlb-112" value="" style="endArrow=classic;html=1;rounded=0;entryX=1;entryY=0.5;entryDx=0;entryDy=0;" edge="1" parent="1" target="F_85ezbhZMd-6I1-vzlb-90">
          <mxGeometry width="50" height="50" relative="1" as="geometry">
            <mxPoint x="550" y="180" as="sourcePoint" />
            <mxPoint x="380" y="425" as="targetPoint" />
          </mxGeometry>
        </mxCell>
        <mxCell id="F_85ezbhZMd-6I1-vzlb-113" value="" style="endArrow=classic;html=1;rounded=0;entryX=1;entryY=0.5;entryDx=0;entryDy=0;" edge="1" parent="1">
          <mxGeometry width="50" height="50" relative="1" as="geometry">
            <mxPoint x="550" y="180" as="sourcePoint" />
            <mxPoint x="370" y="495" as="targetPoint" />
          </mxGeometry>
        </mxCell>
        <mxCell id="F_85ezbhZMd-6I1-vzlb-114" value="" style="endArrow=classic;html=1;rounded=0;entryX=1;entryY=0.5;entryDx=0;entryDy=0;" edge="1" parent="1">
          <mxGeometry width="50" height="50" relative="1" as="geometry">
            <mxPoint x="549" y="180" as="sourcePoint" />
            <mxPoint x="369" y="708" as="targetPoint" />
          </mxGeometry>
        </mxCell>
        <mxCell id="F_85ezbhZMd-6I1-vzlb-115" value="" style="endArrow=classic;html=1;rounded=0;entryX=0;entryY=0.5;entryDx=0;entryDy=0;" edge="1" parent="1" target="F_85ezbhZMd-6I1-vzlb-88">
          <mxGeometry width="50" height="50" relative="1" as="geometry">
            <mxPoint x="90" y="380" as="sourcePoint" />
            <mxPoint x="140" y="330" as="targetPoint" />
          </mxGeometry>
        </mxCell>
        <mxCell id="F_85ezbhZMd-6I1-vzlb-116" value="" style="endArrow=classic;html=1;rounded=0;entryX=0;entryY=0.5;entryDx=0;entryDy=0;" edge="1" parent="1" target="F_85ezbhZMd-6I1-vzlb-93">
          <mxGeometry width="50" height="50" relative="1" as="geometry">
            <mxPoint x="80" y="610" as="sourcePoint" />
            <mxPoint x="233" y="600" as="targetPoint" />
          </mxGeometry>
        </mxCell>
        <mxCell id="F_85ezbhZMd-6I1-vzlb-117" value="" style="endArrow=classic;html=1;rounded=0;entryX=0;entryY=0.5;entryDx=0;entryDy=0;" edge="1" parent="1" target="F_85ezbhZMd-6I1-vzlb-89">
          <mxGeometry width="50" height="50" relative="1" as="geometry">
            <mxPoint x="80" y="610" as="sourcePoint" />
            <mxPoint x="259" y="585" as="targetPoint" />
          </mxGeometry>
        </mxCell>
        <mxCell id="F_85ezbhZMd-6I1-vzlb-118" value="" style="endArrow=classic;html=1;rounded=0;entryX=1;entryY=0.5;entryDx=0;entryDy=0;" edge="1" parent="1" target="F_85ezbhZMd-6I1-vzlb-96">
          <mxGeometry width="50" height="50" relative="1" as="geometry">
            <mxPoint x="554.5" y="395" as="sourcePoint" />
            <mxPoint x="374.5" y="630" as="targetPoint" />
          </mxGeometry>
        </mxCell>
        <mxCell id="F_85ezbhZMd-6I1-vzlb-119" value="Handle Tickets" style="ellipse;whiteSpace=wrap;html=1;" vertex="1" parent="1">
          <mxGeometry x="249" y="560" width="120" height="30" as="geometry" />
        </mxCell>
        <mxCell id="F_85ezbhZMd-6I1-vzlb-120" value="" style="endArrow=classic;html=1;rounded=0;" edge="1" parent="1">
          <mxGeometry width="50" height="50" relative="1" as="geometry">
            <mxPoint x="550" y="620" as="sourcePoint" />
            <mxPoint x="370" y="570" as="targetPoint" />
          </mxGeometry>
        </mxCell>
      </root>
    </mxGraphModel>
  </diagram>
</mxfile>
